<svg id="Layer_1" data-name="Layer 1" xmlns="http://www.w3.org/2000/svg" viewBox="0 0 260.74 31"><defs><style>.cls-1{fill:#fff;}.cls-1,.cls-2{stroke:#000;stroke-miterlimit:10;}.cls-2{fill:#f3dc2a;}</style></defs><title>dva-health</title><rect class="cls-1" x="0.5" y="0.5" width="10.82" height="30"/><rect class="cls-1" x="11.32" y="0.5" width="10.82" height="30"/><rect class="cls-1" x="22.15" y="0.5" width="10.82" height="30"/><rect class="cls-1" x="32.97" y="0.5" width="10.82" height="30"/><rect class="cls-1" x="43.79" y="0.5" width="10.82" height="30"/><rect class="cls-1" x="54.62" y="0.5" width="10.82" height="30"/><rect class="cls-1" x="65.44" y="0.5" width="10.82" height="30"/><rect class="cls-1" x="76.27" y="0.5" width="10.82" height="30"/><rect class="cls-1" x="87.06" y="0.5" width="10.82" height="30"/><rect class="cls-1" x="97.89" y="0.5" width="10.82" height="30"/><rect class="cls-1" x="108.71" y="0.5" width="10.82" height="30"/><rect class="cls-1" x="119.53" y="0.5" width="10.82" height="30"/><rect class="cls-2" x="130.36" y="0.5" width="10.82" height="30"/><rect class="cls-2" x="141.18" y="0.5" width="10.82" height="30"/><rect class="cls-2" x="152" y="0.5" width="10.82" height="30"/><rect class="cls-2" x="162.83" y="0.5" width="10.82" height="30"/><rect class="cls-2" x="173.65" y="0.5" width="10.82" height="30"/><rect class="cls-2" x="184.47" y="0.5" width="10.82" height="30"/><rect class="cls-2" x="195.3" y="0.5" width="10.82" height="30"/><rect class="cls-2" x="206.12" y="0.5" width="10.82" height="30"/><rect class="cls-2" x="216.95" y="0.5" width="10.82" height="30"/><rect class="cls-2" x="227.77" y="0.5" width="10.82" height="30"/><rect class="cls-2" x="238.59" y="0.5" width="10.82" height="30"/><rect class="cls-2" x="249.42" y="0.5" width="10.82" height="30"/></svg>