<svg id="Layer_1" data-name="Layer 1" xmlns="http://www.w3.org/2000/svg" viewBox="0 0 260.52 31"><defs><style>.cls-1{fill:#fff;}.cls-1,.cls-2{stroke:#000;stroke-miterlimit:10;}.cls-2{fill:#f3dc2a;}</style></defs><title>reinhardt-health</title><rect class="cls-1" x="0.5" y="0.5" width="11.8" height="30"/><rect class="cls-1" x="12.3" y="0.5" width="11.8" height="30"/><rect class="cls-1" x="24.09" y="0.5" width="11.8" height="30"/><rect class="cls-1" x="35.89" y="0.5" width="11.8" height="30"/><rect class="cls-1" x="47.69" y="0.5" width="11.8" height="30"/><rect class="cls-1" x="59.48" y="0.5" width="11.8" height="30"/><rect class="cls-1" x="71.28" y="0.5" width="11.8" height="30"/><rect class="cls-1" x="83.07" y="0.5" width="11.8" height="30"/><rect class="cls-1" x="94.87" y="0.5" width="11.8" height="30"/><rect class="cls-1" x="106.67" y="0.5" width="11.8" height="30"/><rect class="cls-2" x="142.06" y="0.5" width="11.8" height="30"/><rect class="cls-2" x="153.85" y="0.5" width="11.8" height="30"/><rect class="cls-2" x="165.65" y="0.5" width="11.8" height="30"/><rect class="cls-2" x="177.44" y="0.5" width="11.8" height="30"/><rect class="cls-2" x="189.24" y="0.5" width="11.8" height="30"/><rect class="cls-2" x="201.04" y="0.5" width="11.8" height="30"/><rect class="cls-2" x="212.83" y="0.5" width="11.8" height="30"/><rect class="cls-2" x="224.63" y="0.5" width="11.8" height="30"/><rect class="cls-2" x="236.43" y="0.5" width="11.8" height="30"/><rect class="cls-2" x="248.22" y="0.5" width="11.8" height="30"/><rect class="cls-1" x="118.46" y="0.5" width="11.8" height="30"/><rect class="cls-1" x="130.26" y="0.5" width="11.8" height="30"/></svg>