<svg id="Layer_1" data-name="Layer 1" xmlns="http://www.w3.org/2000/svg" viewBox="0 0 260.74 31"><defs><style>.cls-1{fill:#fff;}.cls-1,.cls-2{stroke:#000;stroke-miterlimit:10;}.cls-2{fill:#70bad1;}</style></defs><title>sigma-health</title><rect class="cls-1" x="0.5" y="0.5" width="16.23" height="30"/><rect class="cls-1" x="16.73" y="0.5" width="16.23" height="30"/><rect class="cls-1" x="32.97" y="0.5" width="16.23" height="30"/><rect class="cls-1" x="49.2" y="0.5" width="16.23" height="30"/><rect class="cls-1" x="65.43" y="0.5" width="16.23" height="30"/><rect class="cls-1" x="81.67" y="0.5" width="16.23" height="30"/><rect class="cls-1" x="97.9" y="0.5" width="16.23" height="30"/><rect class="cls-1" x="114.14" y="0.5" width="16.23" height="30"/><rect class="cls-1" x="130.37" y="0.5" width="16.23" height="30"/><rect class="cls-1" x="146.6" y="0.5" width="16.23" height="30"/><rect class="cls-1" x="162.84" y="0.5" width="16.23" height="30"/><rect class="cls-1" x="179.07" y="0.5" width="16.23" height="30"/><rect class="cls-2" x="195.3" y="0.5" width="16.23" height="30"/><rect class="cls-2" x="211.54" y="0.5" width="16.23" height="30"/><rect class="cls-2" x="227.77" y="0.5" width="16.23" height="30"/><rect class="cls-2" x="244.01" y="0.5" width="16.23" height="30"/></svg>