<svg id="Layer_1" data-name="Layer 1" xmlns="http://www.w3.org/2000/svg" viewBox="0 0 261 31"><defs><style>.cls-1{fill:#fff;}.cls-1,.cls-2{stroke:#000;stroke-miterlimit:10;}.cls-2{fill:#f3dc2a;}</style></defs><title>winston-health</title><rect class="cls-1" x="0.5" y="0.5" width="13" height="30"/><rect class="cls-1" x="13.5" y="0.5" width="13" height="30"/><rect class="cls-1" x="26.5" y="0.5" width="13" height="30"/><rect class="cls-1" x="39.5" y="0.5" width="13" height="30"/><rect class="cls-1" x="52.5" y="0.5" width="13" height="30"/><rect class="cls-1" x="65.5" y="0.5" width="13" height="30"/><rect class="cls-1" x="78.5" y="0.5" width="13" height="30"/><rect class="cls-1" x="91.5" y="0.5" width="13" height="30"/><rect class="cls-1" x="104.5" y="0.5" width="13" height="30"/><rect class="cls-1" x="117.5" y="0.5" width="13" height="30"/><rect class="cls-1" x="130.5" y="0.5" width="13" height="30"/><rect class="cls-1" x="143.5" y="0.5" width="13" height="30"/><rect class="cls-1" x="156.5" y="0.5" width="13" height="30"/><rect class="cls-1" x="169.5" y="0.5" width="13" height="30"/><rect class="cls-1" x="182.5" y="0.5" width="13" height="30"/><rect class="cls-1" x="195.5" y="0.5" width="13" height="30"/><rect class="cls-2" x="208.5" y="0.5" width="13" height="30"/><rect class="cls-2" x="221.5" y="0.5" width="13" height="30"/><rect class="cls-2" x="234.5" y="0.5" width="13" height="30"/><rect class="cls-2" x="247.5" y="0.5" width="13" height="30"/></svg>