<svg id="Layer_1" data-name="Layer 1" xmlns="http://www.w3.org/2000/svg" viewBox="0 0 260.74 31"><defs><style>.cls-1{fill:#fff;}.cls-1,.cls-2{stroke:#000;stroke-miterlimit:10;}.cls-2{fill:#f3dc2a;}</style></defs><title>ball-health</title><rect class="cls-1" x="0.5" y="0.5" width="10.82" height="30"/><rect class="cls-1" x="11.32" y="0.5" width="10.82" height="30"/><rect class="cls-1" x="22.14" y="0.5" width="10.82" height="30"/><rect class="cls-1" x="32.97" y="0.5" width="10.82" height="30"/><rect class="cls-1" x="43.79" y="0.5" width="10.82" height="30"/><rect class="cls-1" x="54.61" y="0.5" width="10.82" height="30"/><rect class="cls-1" x="65.43" y="0.5" width="10.82" height="30"/><rect class="cls-1" x="76.26" y="0.5" width="10.82" height="30"/><rect class="cls-1" x="87.08" y="0.5" width="10.82" height="30"/><rect class="cls-1" x="97.9" y="0.5" width="10.82" height="30"/><rect class="cls-1" x="108.72" y="0.5" width="10.82" height="30"/><rect class="cls-1" x="119.55" y="0.5" width="10.82" height="30"/><rect class="cls-1" x="130.37" y="0.5" width="10.82" height="30"/><rect class="cls-1" x="141.19" y="0.5" width="10.82" height="30"/><rect class="cls-1" x="152.01" y="0.5" width="10.82" height="30"/><rect class="cls-1" x="162.84" y="0.5" width="10.82" height="30"/><rect class="cls-1" x="173.66" y="0.5" width="10.82" height="30"/><rect class="cls-1" x="184.48" y="0.5" width="10.82" height="30"/><rect class="cls-1" x="195.3" y="0.5" width="10.82" height="30"/><rect class="cls-1" x="206.13" y="0.5" width="10.82" height="30"/><rect class="cls-2" x="216.95" y="0.5" width="10.82" height="30"/><rect class="cls-2" x="227.77" y="0.5" width="10.82" height="30"/><rect class="cls-2" x="238.59" y="0.5" width="10.82" height="30"/><rect class="cls-2" x="249.42" y="0.5" width="10.82" height="30"/></svg>