<svg id="Layer_1" data-name="Layer 1" xmlns="http://www.w3.org/2000/svg" viewBox="0 0 260.74 31"><defs><style>.cls-1{fill:#fff;}.cls-1,.cls-2{stroke:#000;stroke-miterlimit:10;}.cls-2{fill:#f3dc2a;}</style></defs><title>orisa-health</title><rect class="cls-1" x="0.5" y="0.5" width="14.43" height="30"/><rect class="cls-1" x="14.93" y="0.5" width="14.43" height="30"/><rect class="cls-1" x="29.36" y="0.5" width="14.43" height="30"/><rect class="cls-1" x="43.8" y="0.5" width="14.43" height="30"/><rect class="cls-1" x="58.23" y="0.5" width="14.43" height="30"/><rect class="cls-1" x="72.66" y="0.5" width="14.43" height="30"/><rect class="cls-1" x="87.09" y="0.5" width="14.43" height="30"/><rect class="cls-1" x="101.52" y="0.5" width="14.43" height="30"/><rect class="cls-2" x="115.92" y="0.5" width="14.43" height="30"/><rect class="cls-2" x="130.35" y="0.5" width="14.43" height="30"/><rect class="cls-2" x="144.78" y="0.5" width="14.43" height="30"/><rect class="cls-2" x="159.22" y="0.5" width="14.43" height="30"/><rect class="cls-2" x="173.65" y="0.5" width="14.43" height="30"/><rect class="cls-2" x="188.08" y="0.5" width="14.43" height="30"/><rect class="cls-2" x="202.51" y="0.5" width="14.43" height="30"/><rect class="cls-2" x="216.94" y="0.5" width="14.43" height="30"/><rect class="cls-2" x="231.38" y="0.5" width="14.43" height="30"/><rect class="cls-2" x="245.81" y="0.5" width="14.43" height="30"/></svg>