<svg id="Layer_1" data-name="Layer 1" xmlns="http://www.w3.org/2000/svg" viewBox="0 0 260.78 31"><defs><style>.cls-1{fill:#fff;stroke:#000;stroke-miterlimit:10;}</style></defs><title>roadhog-health</title><rect class="cls-1" x="0.5" y="0.5" width="10.82" height="30"/><rect class="cls-1" x="11.32" y="0.5" width="10.82" height="30"/><rect class="cls-1" x="22.15" y="0.5" width="10.82" height="30"/><rect class="cls-1" x="32.97" y="0.5" width="10.82" height="30"/><rect class="cls-1" x="43.8" y="0.5" width="10.82" height="30"/><rect class="cls-1" x="54.62" y="0.5" width="10.82" height="30"/><rect class="cls-1" x="65.44" y="0.5" width="10.82" height="30"/><rect class="cls-1" x="76.27" y="0.5" width="10.82" height="30"/><rect class="cls-1" x="87.09" y="0.5" width="10.82" height="30"/><rect class="cls-1" x="97.92" y="0.5" width="10.82" height="30"/><rect class="cls-1" x="108.74" y="0.5" width="10.82" height="30"/><rect class="cls-1" x="119.57" y="0.5" width="10.82" height="30"/><rect class="cls-1" x="130.39" y="0.5" width="10.82" height="30"/><rect class="cls-1" x="141.21" y="0.5" width="10.82" height="30"/><rect class="cls-1" x="152.04" y="0.5" width="10.82" height="30"/><rect class="cls-1" x="162.86" y="0.5" width="10.82" height="30"/><rect class="cls-1" x="173.69" y="0.5" width="10.82" height="30"/><rect class="cls-1" x="184.51" y="0.5" width="10.82" height="30"/><rect class="cls-1" x="195.33" y="0.5" width="10.82" height="30"/><rect class="cls-1" x="206.16" y="0.5" width="10.82" height="30"/><rect class="cls-1" x="216.98" y="0.5" width="10.82" height="30"/><rect class="cls-1" x="227.81" y="0.5" width="10.82" height="30"/><rect class="cls-1" x="238.63" y="0.5" width="10.82" height="30"/><rect class="cls-1" x="249.45" y="0.5" width="10.82" height="30"/></svg>