<svg id="Layer_1" data-name="Layer 1" xmlns="http://www.w3.org/2000/svg" viewBox="0 0 260 31"><defs><style>.cls-1{fill:#fff;}.cls-1,.cls-2{stroke:#000;stroke-miterlimit:10;}.cls-2{fill:#70bad1;}</style></defs><title>zarya-health</title><rect class="cls-1" x="0.5" y="0.5" width="16.19" height="30"/><rect class="cls-1" x="16.69" y="0.5" width="16.19" height="30"/><rect class="cls-1" x="32.88" y="0.5" width="16.19" height="30"/><rect class="cls-1" x="49.06" y="0.5" width="16.19" height="30"/><rect class="cls-1" x="65.25" y="0.5" width="16.19" height="30"/><rect class="cls-1" x="81.44" y="0.5" width="16.19" height="30"/><rect class="cls-1" x="97.62" y="0.5" width="16.19" height="30"/><rect class="cls-1" x="113.81" y="0.5" width="16.19" height="30"/><rect class="cls-2" x="130" y="0.5" width="16.19" height="30"/><rect class="cls-2" x="146.19" y="0.5" width="16.19" height="30"/><rect class="cls-2" x="162.37" y="0.5" width="16.19" height="30"/><rect class="cls-2" x="178.56" y="0.5" width="16.19" height="30"/><rect class="cls-2" x="194.75" y="0.5" width="16.19" height="30"/><rect class="cls-2" x="210.94" y="0.5" width="16.19" height="30"/><rect class="cls-2" x="227.12" y="0.5" width="16.19" height="30"/><rect class="cls-2" x="243.31" y="0.5" width="16.19" height="30"/></svg>